<?xml version="1.0" encoding="UTF-8" standalone="no"?>
<!-- Created with Inkscape (http://www.inkscape.org/) -->

<svg
   xmlns:dc="http://purl.org/dc/elements/1.1/"
   xmlns:cc="http://creativecommons.org/ns#"
   xmlns:rdf="http://www.w3.org/1999/02/22-rdf-syntax-ns#"
   xmlns:svg="http://www.w3.org/2000/svg"
   xmlns="http://www.w3.org/2000/svg"
   xmlns:sodipodi="http://sodipodi.sourceforge.net/DTD/sodipodi-0.dtd"
   xmlns:inkscape="http://www.inkscape.org/namespaces/inkscape"
   id="svg3039"
   version="1.1"
   inkscape:version="0.48.4 r9939"
   width="708.66125"
   height="508.75"
   xml:space="preserve"
   sodipodi:docname="cabbageLogoHBlueText.svg"
   inkscape:export-filename="/home/rory/sourcecode/cabbageaudio/cabbage/Images/cabbageNoEarphones.png"
   inkscape:export-xdpi="90"
   inkscape:export-ydpi="90"><metadata
     id="metadata3045"><rdf:RDF><cc:Work
         rdf:about=""><dc:format>image/svg+xml</dc:format><dc:type
           rdf:resource="http://purl.org/dc/dcmitype/StillImage" /></cc:Work></rdf:RDF></metadata><defs
     id="defs3043"><clipPath
       clipPathUnits="userSpaceOnUse"
       id="clipPath3053"><path
         d="m 0,407 566.929,0 0,-407 L 0,0 0,407 z"
         id="path3055" /></clipPath></defs><sodipodi:namedview
     pagecolor="#ffffff"
     bordercolor="#666666"
     borderopacity="1"
     objecttolerance="10"
     gridtolerance="10"
     guidetolerance="10"
     inkscape:pageopacity="0"
     inkscape:pageshadow="2"
     inkscape:window-width="1280"
     inkscape:window-height="975"
     id="namedview3041"
     showgrid="false"
     inkscape:zoom="0.74889435"
     inkscape:cx="308.94722"
     inkscape:cy="112.95594"
     inkscape:window-x="0"
     inkscape:window-y="0"
     inkscape:window-maximized="1"
     inkscape:current-layer="g3047" /><g
     id="g3047"
     inkscape:groupmode="layer"
     inkscape:label="cabbageLogoHBlueText"
     transform="matrix(1.25,0,0,-1.25,0,508.75)"><path
       id="path3149"
       style="fill:#8cd024;fill-opacity:1;fill-rule:nonzero;stroke:none"
       d="m 351.60103,108.06582 c -14.82419,16.6907 -21.90945,39.2553 -20.22509,61.4436 2.83201,37.02897 30.0599,71.0153 67.80924,76.17783 0.8673,0.11094 1.70161,0.19265 2.5689,0.28635 l 0.0165,0.0165 c 0,0 1.88226,0.21289 3.84547,0.42578 -13.54835,33.72471 -35.55675,64.05372 -65.20661,85.40321 -24.59453,17.70492 -55.14318,29.44522 -85.65209,30.10413 2.69408,-3.9849 5.22775,-8.08749 8.18044,-11.88798 6.0673,0.91226 12.17058,1.5052 18.30235,1.76307 2.91296,0.12293 5.82518,0.17166 8.73739,0.13043 2.0944,-0.0322 4.41892,0.12293 6.48108,-0.25337 7.47806,-2.51942 14.62854,-5.71873 21.79476,-8.99151 -6.02083,0.961 -12.00942,1.95947 -18.08047,2.43847 -10.8985,0.87104 -21.8952,0.51572 -32.74423,-0.90103 7.07477,-9.63692 12.68256,-20.26481 19.52196,-30.06664 6.77492,-9.71113 13.18854,-19.45599 17.72215,-30.47219 7.36187,-17.89756 8.88507,-36.99224 6.07105,-56.04719 -0.50748,-3.39196 -1.1304,-6.77493 -1.81704,-10.12941 5.1213,6.20223 10.79955,11.91272 16.73867,17.32037 6.95483,6.32441 14.44938,11.98243 21.30602,18.38855 12.18932,11.34377 22.15381,24.49558 30.10787,39.0709 1.40626,-1.86202 2.82976,-3.71429 4.15656,-5.63328 -5.04109,-9.05298 -10.98021,-17.60222 -17.75439,-25.46557 -7.46231,-8.66394 -15.95459,-16.05579 -24.70847,-23.36968 -8.19768,-6.84014 -16.15098,-14.05209 -23.17103,-22.11559 -2.81402,-3.22705 -5.46462,-6.60252 -7.90308,-10.16089 -1.19412,-1.76307 -2.40474,-3.43169 -2.96094,-5.5066 -0.60643,-2.34776 -1.21061,-4.70377 -1.84853,-7.05228 -3.20756,-12.29651 -6.26819,-24.68373 -7.57625,-37.3483 -1.40851,-13.9419 -0.52473,-28.01348 3.01041,-41.61206 7.24868,-27.996906 24.33217,-52.574876 43.11576,-74.091756 24.80742,8.93319 47.19212,23.97184 64.89628,43.60766 -20.63362,-0.76917 -41.20277,9.2951 -54.73463,24.528486"
       inkscape:connector-curvature="0"
       inkscape:export-filename="/home/rory/sourcecode/cabbageaudio/cabbage/Images/Cabbage.png"
       inkscape:export-xdpi="90"
       inkscape:export-ydpi="90" /><path
       id="path3151"
       style="fill:#446eb6;fill-opacity:1;fill-rule:nonzero;stroke:none"
       d="m 417.77463,105.97068 c -21.25579,0 -41.31671,11.09489 -52.6245,29.06142 -11.32278,17.99951 -12.56712,41.08808 -3.25553,60.2 9.3753,19.25885 28.42276,32.29223 49.66131,34.54254 -0.98123,3.17008 -2.07865,6.29968 -3.19032,9.42103 -1.70085,0.21289 -3.68206,0.41228 -5.4009,0.38455 -17.6382,-1.93548 -34.24794,-10.16164 -45.86531,-23.78421 -11.94496,-14.0311 -18.93202,-31.64156 -19.57068,-50.11632 -0.75186,-21.84423 7.74041,-43.83614 23.98885,-58.64458 15.02208,-13.630806 35.81836,-19.668046 55.81481,-16.134336 25.39511,4.49965 45.96352,23.643876 54.81635,47.518036 -10.66912,-19.50396 -31.43467,-32.44813 -54.37408,-32.44813"
       inkscape:connector-curvature="0"
       inkscape:export-filename="/home/rory/sourcecode/cabbageaudio/cabbage/Images/Cabbage.png"
       inkscape:export-xdpi="90"
       inkscape:export-ydpi="90" /><path
       id="path3153"
       style="fill:#96c93d;fill-opacity:1;fill-rule:nonzero;stroke:none"
       d="m 354.35058,359.32957 c 36.71863,-19.40726 65.74633,-52.49706 82.74811,-90.16095 5.08907,-11.2943 9.42478,-23.01512 12.38797,-35.05752 1.12815,-4.49238 2.22408,-8.97576 3.10786,-13.51687 0.14767,-0.81782 0.066,-1.25184 0.7691,-1.75033 0.70312,-0.49923 1.37477,-1.01421 2.06141,-1.55093 1.32605,-1.02171 2.61912,-2.09439 3.86196,-3.2233 2.61912,-2.39723 5.07258,-5.01111 7.26517,-7.81763 -2.5524,4.42642 -5.69475,8.60771 -9.17966,12.33025 -0.60643,0.64616 -1.5217,1.37403 -1.84852,2.16411 -0.55621,2.92796 -0.26087,6.00883 -0.45876,8.96677 -0.80058,10.84004 -2.2743,21.63584 -4.51562,32.26374 -3.796,17.79861 -9.57245,35.82286 -19.4395,51.21599 -2.89572,4.52911 -6.2502,8.98776 -10.45549,12.37523 -1.93098,1.54193 -4.00888,2.66709 -6.30042,3.59585 -2.92871,1.18663 -6.82366,2.53591 -9.90078,1.08393 l -0.80058,0.72862 -1.93023,1.76681 c 0.63716,-0.60193 1.27582,-1.18662 1.89725,-1.78406 -30.61536,28.92275 -71.04829,47.19212 -113.01941,50.95514 -21.24754,1.91074 -42.71622,-0.21289 -63.09648,-6.59428 0.8583,-0.87928 1.80055,-1.83278 2.70758,-2.69183 41.23575,12.37822 86.275,6.72096 124.13904,-13.29874"
       inkscape:connector-curvature="0"
       inkscape:export-filename="/home/rory/sourcecode/cabbageaudio/cabbage/Images/Cabbage.png"
       inkscape:export-xdpi="90"
       inkscape:export-ydpi="90" /><path
       id="path3155"
       style="fill:#446eb6;fill-opacity:1;fill-rule:nonzero;stroke:none"
       d="m 90.761445,269.21809 c 4.606246,4.62206 10.173265,8.38133 16.178865,10.95023 4.0783,1.73533 8.32444,2.72481 12.62087,3.69855 -5.66978,-4.50438 -10.97556,-9.24488 -15.52558,-14.93138 -5.747074,-7.18421 -10.083388,-15.54155 -12.844332,-24.29919 -6.790969,-21.20257 -4.152135,-45.00776 7.109251,-64.22988 0.233052,-0.37555 0.462656,-0.76909 0.699531,-1.17763 -3.210707,41.87292 5.64542,86.79748 31.36361,120.78456 4.58578,6.05756 9.93257,11.20434 15.09532,16.73493 4.97512,5.32969 8.88581,11.51168 12.20281,17.99126 -17.14008,-11.9412 -31.4663,-28.92949 -40.73127,-47.64113 -0.53702,-1.07568 -4.22177,-1.30506 -5.48148,-1.67312 -2.03743,-0.57719 -4.04232,-1.30431 -5.99392,-2.14311 -3.80012,-1.66113 -7.400246,-3.8005 -10.72167,-6.28394 -7.015251,-5.24873 -12.792154,-12.06414 -17.139862,-19.63965 -18.998132,-33.13552 -9.372137,-80.61699 24.475122,-100.3181 -0.30742,1.50521 -0.60988,3.01042 -0.88806,4.51637 -35.274479,23.12081 -39.876939,78.13355 -10.419205,107.66123"
       inkscape:connector-curvature="0"
       inkscape:export-filename="/home/rory/sourcecode/cabbageaudio/cabbage/Images/Cabbage.png"
       inkscape:export-xdpi="90"
       inkscape:export-ydpi="90" /><path
       id="path3159"
       style="fill:#8cd024;fill-opacity:1;fill-rule:nonzero;stroke:none"
       d="m 240.20602,363.98462 c -1.85753,-0.99398 -3.97216,-2.11464 -6.48409,-2.11464 -3.04414,0 -5.31469,1.60341 -7.3019,3.34624 -2.2743,1.97971 -4.37319,4.1768 -6.40312,6.29968 l -1.00147,1.05094 c -0.57645,0.60119 -1.16639,1.26009 -1.76682,1.93548 -1.63639,1.82454 -3.46092,3.86197 -5.38066,5.10931 -0.64541,-0.7526 -1.20537,-1.72634 -1.79081,-2.7413 -1.5172,-2.61837 -3.4032,-5.87841 -7.62498,-6.00059 -0.004,0 -0.004,0 -0.004,0 -2.70908,0 -4.80347,1.4235 -6.7382,2.87998 -0.85155,0.64166 -1.67237,1.32905 -2.50368,2.02468 -1.03071,0.8628 -2.02094,1.69336 -3.0434,2.42198 -1.97221,-2.36126 -3.54263,-5.24424 -5.07632,-8.05151 -0.62142,-1.14539 -1.23535,-2.28254 -1.86951,-3.36198 -0.74811,-1.27732 -1.5337,-2.52916 -2.31553,-3.7795 -1.08393,-1.73909 -2.17161,-3.47817 -3.15434,-5.28547 -3.39571,-6.31242 -6.49607,-12.93517 -9.13468,-18.65466 -1.94223,-4.23751 -3.64008,-7.76365 -5.61229,-11.22533 -4.45389,-7.82962 -9.20414,-14.14129 -14.95211,-19.84803 -27.817,-27.71064 -37.35595,-64.06572 -40.46066,-89.69396 -5.30615,-43.6982 4.54852,-87.56732 27.02235,-120.358846 18.79424,-27.37549 47.94112,-47.92816 84.31194,-59.39861 24.39364,-7.69015 50.79022,-11.372871 77.91241,-10.880357 10.19538,0.179788 19.2596,0.915924 27.73613,2.257597 l 0.40853,0.0653 c 4.10784,0.638042 8.34535,1.309472 12.17358,2.667832 -65.3213,73.584194 -53.13048,119.989964 -41.34894,164.907034 l 0.42502,1.58691 c 3.68131,14.05584 8.26365,31.54037 7.85511,48.67184 -0.44226,18.81358 -7.03729,37.65564 -19.65313,56.01121 -6.29968,9.17516 -12.30926,18.58045 -17.87283,27.37557 -3.06363,4.86718 -6.04106,9.04473 -9.08896,12.77476 -2.56889,3.15434 -4.81921,6.58228 -6.99081,9.90003 -0.83056,1.26383 -1.65288,2.52467 -2.50368,3.77576 -1.18663,1.75932 -2.53591,3.75102 -4.04637,5.49385 -1.91824,2.21733 -2.0734,1.70985 -3.30051,1.06369 l -0.42127,-0.22488"
       inkscape:connector-curvature="0"
       inkscape:export-filename="/home/rory/sourcecode/cabbageaudio/cabbage/Images/Cabbage.png"
       inkscape:export-xdpi="90"
       inkscape:export-ydpi="90" /></g></svg>