<?xml version="1.0" encoding="UTF-8" standalone="no"?>
<!-- Created with Inkscape (http://www.inkscape.org/) -->

<svg
   xmlns:dc="http://purl.org/dc/elements/1.1/"
   xmlns:cc="http://creativecommons.org/ns#"
   xmlns:rdf="http://www.w3.org/1999/02/22-rdf-syntax-ns#"
   xmlns:svg="http://www.w3.org/2000/svg"
   xmlns="http://www.w3.org/2000/svg"
   xmlns:sodipodi="http://sodipodi.sourceforge.net/DTD/sodipodi-0.dtd"
   xmlns:inkscape="http://www.inkscape.org/namespaces/inkscape"
   id="svg2"
   version="1.1"
   inkscape:version="0.48.3.1 r9886"
   width="423.14999"
   height="342.89999"
   xml:space="preserve"
   sodipodi:docname="logo_cabbage_sw_white_bckNEW.svg"
   inkscape:export-filename="/home/rory/sourcecode/cabbage/Images/logo_cabbage_black_bg.png"
   inkscape:export-xdpi="90"
   inkscape:export-ydpi="90"><metadata
     id="metadata8"><rdf:RDF><cc:Work
         rdf:about=""><dc:format>image/svg+xml</dc:format><dc:type
           rdf:resource="http://purl.org/dc/dcmitype/StillImage" /><dc:title></dc:title></cc:Work></rdf:RDF></metadata><defs
     id="defs6" /><sodipodi:namedview
     pagecolor="#ffffff"
     bordercolor="#666666"
     borderopacity="1"
     objecttolerance="10"
     gridtolerance="10"
     guidetolerance="10"
     inkscape:pageopacity="0"
     inkscape:pageshadow="2"
     inkscape:window-width="1280"
     inkscape:window-height="975"
     id="namedview4"
     showgrid="false"
     inkscape:zoom="1.1552593"
     inkscape:cx="141.48653"
     inkscape:cy="163.83536"
     inkscape:window-x="0"
     inkscape:window-y="0"
     inkscape:window-maximized="1"
     inkscape:current-layer="g3853" /><g
     id="g10"
     inkscape:groupmode="layer"
     inkscape:label="ink_ext_XXXXXX"
     transform="matrix(1.25,0,0,-1.25,0,342.90055)"><g
       id="g3846"
       transform="matrix(1.4409838,0,0,1.4409838,-79.163155,-63.827146)"><path
         d="m 200.66,124.897 c -5.71,6.426 -8.432,15.119 -7.787,23.658 1.087,14.262 11.576,27.35 26.119,29.346 0.323,0.038 0.66,0.067 0.983,0.094 0,0.011 0.006,0.022 0.006,0.022 0,0 0.723,0.073 1.48,0.15 -5.212,12.99 -13.686,24.674 -25.109,32.897 -9.471,6.82 -21.235,11.338 -32.988,11.597 1.046,-1.547 2.021,-3.115 3.151,-4.584 2.337,0.354 4.693,0.582 7.05,0.676 1.123,0.05 2.239,0.068 3.361,0.05 0.806,0 1.704,0.056 2.505,-0.095 2.87,-0.975 5.632,-2.2 8.384,-3.459 -2.316,0.361 -4.617,0.754 -6.96,0.937 -4.195,0.344 -8.426,0.2 -12.604,-0.344 2.726,-3.708 4.879,-7.805 7.518,-11.58 2.609,-3.742 5.072,-7.496 6.818,-11.737 2.835,-6.886 3.425,-14.242 2.337,-21.577 -0.189,-1.311 -0.428,-2.617 -0.701,-3.908 1.978,2.386 4.167,4.596 6.454,6.676 2.673,2.427 5.563,4.605 8.209,7.079 4.678,4.364 8.523,9.429 11.596,15.045 0.533,-0.726 1.081,-1.435 1.592,-2.168 -1.935,-3.486 -4.222,-6.784 -6.839,-9.811 -2.87,-3.333 -6.139,-6.181 -9.514,-8.997 -3.15,-2.639 -6.222,-5.41 -8.924,-8.518 -1.08,-1.242 -2.112,-2.547 -3.037,-3.908 -0.464,-0.68 -0.933,-1.333 -1.144,-2.133 -0.231,-0.898 -0.47,-1.803 -0.702,-2.714 -1.248,-4.736 -2.427,-9.493 -2.925,-14.375 -0.548,-5.375 -0.203,-10.784 1.157,-16.024 2.793,-10.784 9.359,-20.241 16.6,-28.5342 9.561,3.4392 18.178,9.2262 24.996,16.7902 -7.949,-0.282 -15.869,3.577 -21.082,9.449"
         style="fill:#89cf25;fill-opacity:1;fill-rule:nonzero;stroke:none"
         id="path14"
         inkscape:connector-curvature="0" /><path
         d="m 226.142,124.097 c -8.181,0 -15.906,4.266 -20.262,11.183 -4.364,6.932 -4.834,15.828 -1.248,23.18 3.605,7.422 10.937,12.44 19.118,13.31 -0.38,1.219 -0.794,2.423 -1.229,3.626 -0.653,0.077 -1.417,0.155 -2.077,0.144 -6.791,-0.743 -13.189,-3.904 -17.665,-9.159 -4.595,-5.409 -7.289,-12.186 -7.543,-19.293 -0.286,-8.419 2.983,-16.887 9.255,-22.584 5.78,-5.255 13.785,-7.583 21.482,-6.23 9.787,1.74 17.701,9.114 21.118,18.311 -4.119,-7.513 -12.11,-12.488 -20.949,-12.488"
         style="fill:#6495ed;fill-opacity:1;fill-rule:nonzero;stroke:none"
         id="path16"
         inkscape:connector-curvature="0" /><path
         d="m 201.72,221.657 c 14.136,-7.477 25.32,-20.222 31.872,-34.72 1.957,-4.346 3.62,-8.864 4.77,-13.508 0.421,-1.72 0.843,-3.449 1.186,-5.196 0.056,-0.316 0.029,-0.477 0.295,-0.68 0.28,-0.189 0.547,-0.386 0.793,-0.596 0.519,-0.394 1.017,-0.807 1.494,-1.236 1.011,-0.926 1.957,-1.936 2.8,-3.009 -0.982,1.698 -2.19,3.304 -3.536,4.736 -0.239,0.252 -0.582,0.54 -0.709,0.841 -0.217,1.13 -0.106,2.313 -0.183,3.459 -0.301,4.164 -0.863,8.331 -1.732,12.418 -1.467,6.858 -3.691,13.793 -7.486,19.725 -1.116,1.747 -2.407,3.458 -4.034,4.766 -0.737,0.594 -1.537,1.032 -2.414,1.386 -1.13,0.45 -2.63,0.976 -3.815,0.411 l -0.31,0.287 -0.743,0.677 c 0.238,-0.227 0.491,-0.448 0.729,-0.687 -11.793,11.137 -27.361,18.178 -43.526,19.63 -8.18,0.73 -16.451,-0.088 -24.298,-2.543 0.333,-0.344 0.69,-0.706 1.039,-1.039 15.886,4.764 33.229,2.585 47.808,-5.122"
         style="fill:#89cf25;fill-opacity:1;fill-rule:nonzero;stroke:none"
         id="path20"
         inkscape:connector-curvature="0" /><path
         sodipodi:nodetypes="cccccccccccccccccc"
         d="m 101.216,185.955 c 1.772,1.778 3.915,3.231 6.227,4.224 1.572,0.666 3.205,1.048 4.862,1.412 -2.183,-1.729 -4.227,-3.553 -5.978,-5.748 -2.217,-2.754 -3.883,-5.981 -4.949,-9.352 -2.6135,-8.17 -1.5964,-17.34 2.736,-24.734 0.091,-0.147 0.183,-0.302 0.274,-0.456 -1.239,16.122 -5.359779,19.02065 9.56674,42.66505 l 1.48397,2.19953 c 1.39563,1.27296 4.18163,4.20434 4.18163,4.20434 -2.79333,-0.79333 -7.0592,-5.95036 -7.59057,-7.17968 -1.20245,-0.58712 -2.36677,-0.85524 -2.84777,-0.98824 -0.789,-0.228 -1.557,-0.516 -2.307,-0.841 -1.467,-0.629 -2.856,-1.449 -4.129,-2.407 -2.705,-2.024 -4.9292,-4.641 -6.6015,-7.563 -7.3183,-12.762 -3.6101,-31.045 9.4215,-38.629 -0.12,0.576 -0.232,1.158 -0.336,1.741 -13.587,8.902 -15.3585,30.086 -4.014,41.452"
         style="fill:#6495ed;fill-opacity:1;fill-rule:nonzero;stroke:none"
         id="path24"
         inkscape:connector-curvature="0" /><path
         d="m 157.767,223.444 c -0.716,-0.383 -1.53,-0.811 -2.498,-0.811 -1.172,0 -2.049,0.621 -2.817,1.287 -0.87,0.766 -1.68,1.607 -2.459,2.428 l -0.389,0.4 c -0.218,0.238 -0.449,0.498 -0.682,0.747 -0.627,0.705 -1.328,1.491 -2.072,1.968 -0.249,-0.288 -0.459,-0.66 -0.687,-1.052 -0.583,-1.011 -1.309,-2.263 -2.94,-2.312 l 0,0 c -1.039,0 -1.848,0.554 -2.596,1.108 -0.326,0.249 -0.643,0.516 -0.961,0.782 -0.4,0.327 -0.779,0.654 -1.171,0.937 -0.759,-0.915 -1.369,-2.024 -1.958,-3.105 -0.239,-0.448 -0.478,-0.876 -0.716,-1.287 -0.292,-0.498 -0.593,-0.975 -0.895,-1.463 -0.417,-0.669 -0.838,-1.335 -1.216,-2.034 -1.309,-2.428 -2.498,-4.984 -3.515,-7.184 -0.744,-1.631 -1.404,-2.999 -2.165,-4.319 -1.712,-3.016 -3.54,-5.443 -5.753,-7.65 -10.712,-10.667 -14.386,-24.671 -15.586,-34.542 -2.037,-16.83 1.754,-33.724 10.413,-46.353 7.232,-10.523 18.458,-18.451 32.46,-22.864 9.395,-2.9609 19.563,-4.3988 30.007,-4.1879 3.921,0.0559 7.423,0.343 10.685,0.8629 l 0.154,0.0211 c 1.58,0.2461 3.207,0.5117 4.679,1.0309 -25.144,28.336 -20.457,46.213 -15.911,63.5 l 0.161,0.61 c 1.417,5.423 3.178,12.15 3.017,18.749 -0.161,7.251 -2.708,14.502 -7.556,21.569 -2.427,3.533 -4.749,7.154 -6.885,10.545 -1.183,1.873 -2.326,3.488 -3.502,4.918 -0.992,1.214 -1.855,2.534 -2.694,3.814 -0.319,0.487 -0.635,0.975 -0.964,1.452 -0.457,0.677 -0.98,1.442 -1.554,2.112 -0.747,0.859 -0.803,0.666 -1.274,0.417 l -0.16,-0.094"
         style="fill:#89cf25;fill-opacity:1;fill-rule:nonzero;stroke:none"
         id="path28"
         inkscape:connector-curvature="0" /></g><g
       id="g3853"><path
         d="M 101.32583,43.138002 C 100.61194,42.54952 99.649549,42.094589 98.436506,41.810633 97.215393,41.488542 95.822197,41.261394 94.247821,41.11186 92.677242,40.961614 91.081266,40.767853 89.45839,40.506683 87.828473,40.251685 86.219205,39.90127 84.623229,39.479727 83.024801,39.04149 81.606525,38.408543 80.363179,37.548368 79.119518,36.671025 78.109888,35.522226 77.324559,34.06716 77.137919,33.729404 77.046696,33.290218 76.904836,32.907285 l -8.750017,0 c -0.352868,-2.447053 -1.229974,-4.385453 -2.628471,-5.833398 -1.390426,-1.437423 -3.38049,-2.164679 -5.967265,-2.164679 -1.678813,0 -3.094241,0.377395 -4.26005,1.132105 -1.168499,0.771404 -2.095688,1.754213 -2.780853,2.936953 -0.67749,1.192314 -1.171031,2.519129 -1.479513,3.990889 -0.307771,1.476349 -0.455168,2.913139 -0.455168,4.334817 0,1.481887 0.147397,2.963853 0.455168,4.45745 0.308482,1.49771 0.824571,2.858467 1.55428,4.112652 0.741102,1.238044 1.692975,2.253924 2.856332,3.036484 1.167866,0.788098 2.610906,1.182107 4.337585,1.182107 4.615133,0 7.274223,-2.253291 7.987554,-6.771741 l 10.576544,0 c -0.03869,0.626459 -0.188539,1.170714 -0.282532,1.753896 l 10.096533,0 c 0.200328,2.131607 0.907092,3.641027 2.128838,4.562915 1.213043,0.904323 2.888691,1.359886 5.019982,1.359886 0.960813,0 1.862684,-0.06092 2.698332,-0.183633 0.837547,-0.133473 1.573743,-0.377316 2.203285,-0.754711 0.63849,-0.394009 1.14912,-0.92157 1.52675,-1.599061 0.38325,-0.699327 0.57147,-1.620028 0.57147,-2.780853 0.0438,-1.120316 -0.28593,-1.963718 -0.98779,-2.541361 z m 0.98779,-10.080472 c 0,-0.62187 -0.0661,-1.420728 -0.18822,-2.448634 -0.1311,-1.01501 -0.46949,-2.008895 -1.0298,-2.990754 -0.56341,-1.000135 -1.423503,-1.848759 -2.587097,-2.559321 -1.168578,-0.709929 -2.817326,-1.053857 -4.943078,-1.053857 -0.865634,0 -1.701045,0.07105 -2.508606,0.227782 -0.813416,0.148664 -1.526748,0.403583 -2.137383,0.781611 -0.607313,0.394009 -1.090963,0.909861 -1.442407,1.560372 -0.3554,0.665386 -0.536502,1.481966 -0.536502,2.447131 0,1.010896 0.181102,1.842588 0.536502,2.508923 0.351444,0.649325 0.820853,1.193896 1.400949,1.632766 0.591251,0.437604 1.273964,0.770771 2.05953,1.026956 0.782876,0.254999 1.584583,0.454931 2.398315,0.604544 0.863182,0.149534 1.72573,0.287991 2.583373,0.394009 0.865714,0.08933 1.684668,0.227149 2.46968,0.377395 0.791184,0.149534 1.526748,0.333168 2.214684,0.560949 0.67749,0.238859 1.25545,0.543623 1.71006,0.948788 l 0,-4.01866 z m 10.79934,-6.482801 0,20.475598 c 0,2.392697 -0.53286,4.297156 -1.59597,5.728328 -1.06596,1.455066 -2.43384,2.587171 -4.10245,3.386345 -1.6819,0.816581 -3.53279,1.359887 -5.55553,1.647878 -2.031762,0.272958 -4.039074,0.422492 -6.012444,0.422492 -2.18343,0 -4.351511,-0.221611 -6.511205,-0.649641 -2.152811,-0.438237 -4.087809,-1.159875 -5.813934,-2.175755 -1.722961,-1.010263 -3.14369,-2.358994 -4.262819,-4.018976 -0.796406,-1.198802 -1.260356,-2.692477 -1.562588,-4.323977 -0.29701,1.010341 -0.674326,1.9653 -1.168183,2.825396 -1.071816,1.860231 -2.45085,3.403039 -4.149758,4.640134 -1.698276,1.255134 -3.623938,2.176705 -5.786085,2.781248 -2.15384,0.622741 -4.393285,0.921571 -6.725062,0.921571 -3.197252,0 -6.042112,-0.543622 -8.519783,-1.598112 -2.492861,-1.077671 -4.596595,-2.55402 -6.319279,-4.457529 -1.727003,-1.893303 -3.033999,-4.15775 -3.919136,-6.771742 -0.882977,-2.613991 -1.329561,-5.429181 -1.329561,-8.48141 0,-2.948109 0.479964,-5.639637 1.443293,-8.104965 0.963021,-2.458287 2.308959,-4.578659 4.035037,-6.343711 1.723895,-1.77059 3.813411,-3.157615 6.272331,-4.142005 2.46161,-0.997604 5.162473,-1.497632 8.101563,-1.497632 5.225847,0 9.508446,1.375869 12.86077,4.113522 1.609822,1.315027 2.90048,2.941622 3.899349,4.833975 0.172478,-0.893168 0.427081,-1.719955 0.774174,-2.464458 0.68825,-1.481888 1.632132,-2.703633 2.856648,-3.658276 1.2204,-0.965481 2.63654,-1.675094 4.257517,-2.131607 1.622876,-0.466007 3.374874,-0.693156 5.250216,-0.693156 2.431387,0 4.820999,0.360938 7.155308,1.0715 2.33059,0.710167 4.354601,1.953195 6.083491,3.719197 0.0472,-0.649641 0.13624,-1.298966 0.26608,-1.932862 0.12484,-0.636982 0.28894,-1.254185 0.49448,-1.857779 l 10.95418,0 c -0.50564,0.797672 -0.86041,2.024639 -1.06873,3.656772 -0.19685,1.615756 -0.30192,3.308177 -0.30192,5.079637"
         style="fill:#ffffff;fill-opacity:1;fill-rule:nonzero;stroke:none"
         id="path30"
         inkscape:connector-curvature="0" /><path
         d="m 256.02313,33.918576 c -0.38214,-1.282588 -0.94863,-2.432337 -1.71449,-3.458344 -0.76033,-1.015879 -1.71529,-1.815133 -2.89178,-2.42118 -1.1662,-0.620921 -2.50884,-0.921017 -4.0295,-0.921017 -1.67098,0 -3.07454,0.344323 -4.18061,1.053936 -1.11478,0.711432 -2.02464,1.633003 -2.70269,2.754269 -0.68279,1.11541 -1.16541,2.358439 -1.44312,3.76279 -0.28245,1.387657 -0.41616,2.798496 -0.41616,4.218592 0,1.466142 0.15507,2.886317 0.48895,4.23038 0.33784,1.341927 0.86002,2.524667 1.59345,3.568318 0.73738,1.043729 1.64724,1.859915 2.73512,2.476484 1.08867,0.604544 2.40362,0.909861 3.92506,0.909861 1.77621,0 3.24148,-0.333167 4.41797,-0.999502 1.15988,-0.649325 2.10455,-1.542808 2.8087,-2.65814 0.71128,-1.104572 1.21605,-2.38716 1.52699,-3.841276 0.29907,-1.448578 0.44939,-2.975563 0.44939,-4.595986 0,-1.421678 -0.18909,-2.780853 -0.56728,-4.079185 z M 218.00201,33.05753 c 0,-0.62187 -0.0673,-1.420728 -0.18989,-2.448634 -0.12659,-1.01501 -0.47154,-2.008895 -1.02616,-2.990754 -0.56016,-1.000135 -1.42018,-1.848759 -2.58638,-2.559321 -1.16621,-0.709929 -2.81503,-1.053857 -4.94569,-1.053857 -0.86002,0 -1.70342,0.07105 -2.50885,0.227782 -0.81096,0.148664 -1.5159,0.403583 -2.12591,0.781611 -0.61633,0.394009 -1.09974,0.909861 -1.45498,1.560372 -0.35524,0.665386 -0.53326,1.481966 -0.53326,2.447131 0,1.010896 0.17802,1.842588 0.53326,2.508923 0.35524,0.649325 0.82758,1.193896 1.40514,1.632766 0.59339,0.437604 1.27618,0.770771 2.05866,1.026956 0.78802,0.254999 1.58791,0.454931 2.39254,0.604544 0.87188,0.149534 1.73269,0.287991 2.59271,0.394009 0.86001,0.08933 1.68205,0.227149 2.46928,0.377395 0.78327,0.149534 1.53253,0.333168 2.20978,0.560949 0.68279,0.238859 1.26035,0.543623 1.70975,0.948788 l 0,-4.01866 z m -35.8248,-0.316473 c -0.36632,-1.515908 -0.92727,-2.858468 -1.68206,-4.03567 -0.76507,-1.148799 -1.70896,-2.08738 -2.85222,-2.770093 -1.14405,-0.677095 -2.52071,-1.026086 -4.14659,-1.026086 -1.57366,0 -2.93687,0.348991 -4.10783,1.026086 -1.16541,0.682713 -2.13144,1.621294 -2.89494,2.770093 -0.75953,1.177202 -1.31494,2.519762 -1.67019,4.03567 -0.35286,1.526431 -0.53325,3.097642 -0.53325,4.713081 0,1.681266 0.18039,3.279378 0.53325,4.789747 0.35525,1.53197 0.91066,2.876112 1.67019,4.040576 0.7635,1.160824 1.72953,2.098535 2.89494,2.781248 1.17096,0.677095 2.53417,1.026956 4.10783,1.026956 1.62588,0 3.00254,-0.349861 4.14659,-1.026956 1.14326,-0.682713 2.08715,-1.620424 2.85222,-2.781248 0.75479,-1.164464 1.31574,-2.508606 1.68206,-4.040576 0.34416,-1.510369 0.52218,-3.108481 0.52218,-4.789747 0,-1.615439 -0.17802,-3.18665 -0.52218,-4.713081 z m -39.24113,0 c -0.35762,-1.515908 -0.91857,-2.858468 -1.68127,-4.03567 -0.75795,-1.148799 -1.70421,-2.08738 -2.84509,-2.770093 -1.14326,-0.677095 -2.52309,-1.026086 -4.1466,-1.026086 -1.57366,0 -2.94162,0.348991 -4.1094,1.026086 -1.16858,0.682713 -2.13145,1.621294 -2.89494,2.770093 -0.75796,1.177202 -1.31574,2.519762 -1.67098,4.03567 -0.3505,1.526431 -0.53326,3.097642 -0.53326,4.713081 0,1.681266 0.18276,3.279378 0.53326,4.789747 0.35524,1.53197 0.91302,2.876112 1.67098,4.040576 0.76349,1.160824 1.72636,2.098535 2.89494,2.781248 1.16778,0.677095 2.53574,1.026956 4.1094,1.026956 1.62351,0 3.00334,-0.349861 4.1466,-1.026956 1.14088,-0.682713 2.08714,-1.620424 2.84509,-2.781248 0.7627,-1.164464 1.32365,-2.508606 1.68127,-4.040576 0.35287,-1.510369 0.53326,-3.108481 0.53326,-4.789747 0,-1.615439 -0.18039,-3.18665 -0.53326,-4.713081 z m 135.14684,11.561805 c 0.28324,0.965798 0.76665,1.870991 1.45419,2.747465 0.67172,0.866583 1.59345,1.587351 2.73592,2.164916 1.13297,0.588482 2.57609,0.877422 4.29691,0.877422 2.63069,0 4.60707,-0.710483 5.88878,-2.131528 1.29359,-1.421045 2.1987,-3.491414 2.70348,-6.243863 l -17.57377,0 c 0.0506,0.770454 0.21678,1.631183 0.49449,2.585588 z m 14.7983,-17.762075 c -1.57762,-1.087323 -3.45273,-1.631579 -5.62848,-1.631579 -3.04685,0 -5.37926,0.788098 -7.00435,2.359389 -1.62193,1.570263 -2.5041,4.112573 -2.65996,7.615144 l 28.38134,0 c 0.1883,3.041073 -0.0506,5.95516 -0.77141,8.736962 -0.6994,2.797626 -1.85453,5.278066 -3.45351,7.46561 -1.59819,2.181294 -3.64103,3.918812 -6.12218,5.201084 -2.48115,1.298332 -5.40616,1.947973 -8.74733,1.947973 -2.99226,0 -5.72342,-0.543622 -8.18717,-1.598112 -2.45425,-1.077671 -4.56908,-2.525617 -6.35558,-4.385531 -1.76592,-1.842588 -3.14258,-4.035037 -4.10228,-6.572364 -0.85527,-2.253291 -1.27144,-4.712211 -1.3648,-7.309825 l 0,18.795598 -10.2751,0 0,-5.246577 -0.15032,0 c -1.32049,2.281774 -2.9527,3.902197 -4.90613,4.868312 -1.94869,0.966114 -4.22967,1.448499 -6.80498,1.448499 -2.74857,0 -5.17434,-0.543622 -7.26702,-1.598112 -2.11404,-1.077671 -3.8681,-2.509556 -5.28906,-4.29684 -1.42097,-1.79836 -2.49302,-3.880202 -3.2312,-6.238562 -0.0609,-0.199379 -0.0823,-0.405166 -0.13766,-0.600509 l 0,1.54898 c 0,2.392697 -0.52772,4.297156 -1.60531,5.728328 -1.05386,1.455066 -2.42419,2.587171 -4.09596,3.386345 -1.68206,0.816581 -3.52947,1.359887 -5.55016,1.647878 -2.03729,0.272958 -4.03582,0.422492 -6.0122,0.422492 -2.18604,0 -4.35705,-0.221611 -6.51144,-0.649641 -2.15281,-0.438237 -4.09517,-1.159875 -5.82153,-2.175755 -1.71529,-1.010263 -3.13625,-2.358994 -4.25736,-4.018976 -1.11636,-1.675648 -1.74852,-3.779406 -1.89805,-6.316178 l 10.80124,0 c 0.19384,2.131607 0.90986,3.641027 2.13145,4.562915 1.21051,0.904323 2.89098,1.359886 5.02243,1.359886 0.96129,0 1.86007,-0.06092 2.69873,-0.183633 0.83786,-0.133473 1.5705,-0.377316 2.20265,-0.754711 0.63928,-0.394009 1.14406,-0.92157 1.52699,-1.599061 0.3766,-0.699327 0.56649,-1.620028 0.56649,-2.780853 0.0491,-1.120316 -0.2785,-1.963718 -0.98186,-2.541361 -0.71049,-0.588482 -1.68206,-1.043413 -2.89257,-1.327369 -1.2208,-0.322091 -2.61486,-0.549239 -4.18536,-0.698773 -1.57683,-0.150246 -3.17028,-0.344007 -4.79616,-0.605177 -1.62667,-0.254998 -3.23594,-0.605413 -4.83492,-1.026956 -1.59819,-0.438237 -3.01916,-1.071184 -4.25736,-1.931359 -1.12111,-0.788019 -2.01989,-1.832381 -2.76361,-3.087119 0.0886,1.010895 0.22154,1.981994 0.22154,3.087119 0,3.596801 -0.48816,6.694206 -1.4542,9.308198 -0.95971,2.614941 -2.21452,4.762214 -3.75812,6.422196 -1.5531,1.681899 -3.29054,2.91931 -5.21707,3.735258 -1.92653,0.816185 -3.87996,1.22135 -5.85634,1.22135 -2.43605,0 -4.78271,-0.482385 -7.04074,-1.421045 -2.25092,-0.931777 -4.04454,-2.414614 -5.36186,-4.440835 l -0.15507,0 0,12.800482 -10.79966,0 0,-22.430612 c -0.24131,1.48252 -0.57993,2.858467 -1.04278,4.113206 -0.96603,2.614941 -2.21531,4.762214 -3.76682,6.422196 -1.54597,1.681899 -3.28895,2.91931 -5.21232,3.735258 -1.92574,0.816185 -3.87997,1.22135 -5.85634,1.22135 -2.43368,0 -4.77875,-0.482385 -7.04153,-1.421045 -2.25013,-0.931777 -4.03979,-2.414614 -5.36106,-4.440835 l -0.15824,0 0,12.800482 -10.7908,0 0,-47.335652 10.26308,0 0,5.016975 0.1527,0 c 1.1662,-2.175755 2.89257,-3.719196 5.17909,-4.641162 2.27861,-0.903374 4.86578,-1.375869 7.75676,-1.375869 1.97637,0 3.9306,0.410704 5.85634,1.227205 1.92337,0.798304 3.66635,2.053122 5.21232,3.729719 1.55151,1.665521 2.80079,3.807888 3.76682,6.428368 0.46285,1.253868 0.80147,2.636224 1.04278,4.112652 l 0,-14.497888 10.2664,0 0,5.016975 0.15508,0 c 1.16225,-2.175755 2.88623,-3.719196 5.17355,-4.641162 2.28098,-0.903374 4.87052,-1.375869 7.7623,-1.375869 1.97638,0 3.92981,0.410704 5.85634,1.227205 1.92653,0.798304 3.66397,2.053122 5.21707,3.729719 1.46606,1.582368 2.65363,3.629872 3.59197,6.072335 0.0768,-1.72573 0.36632,-3.269171 0.96525,-4.54622 0.68279,-1.481888 1.63221,-2.703633 2.8538,-3.658276 1.22079,-0.965481 2.64176,-1.675094 4.26289,-2.131607 1.61956,-0.466007 3.3744,-0.693156 5.25584,-0.693156 2.42577,0 4.81356,0.360938 7.14992,1.0715 2.33083,0.710167 4.35151,1.953195 6.08342,3.719197 0.0498,-0.649641 0.13291,-1.298966 0.26583,-1.932862 0.12185,-0.636982 0.28879,-1.254185 0.49449,-1.857779 l 10.94603,0 c -0.50478,0.797672 -0.86002,2.024639 -1.06572,3.656772 -0.19464,1.615756 -0.29907,3.308177 -0.29907,5.079637 l 0,4.489968 c 0.63769,-2.38621 1.62588,-4.489968 2.99146,-6.277252 1.37113,-1.79931 3.1141,-3.220355 5.24476,-4.258151 2.13224,-1.031624 4.66324,-1.559502 7.61594,-1.559502 2.37592,0 4.64029,0.500028 6.78835,1.49866 2.15993,0.983363 3.83012,2.508607 4.99554,4.590369 l 0.15032,0 0,-5.167379 c 0.0554,-2.798259 -0.62741,-5.106854 -2.01514,-6.921987 -1.39249,-1.826211 -3.61334,-2.75332 -6.64911,-2.75332 -1.93761,0 -3.63074,0.410704 -5.09523,1.199435 -1.48188,0.782481 -2.46532,2.185961 -2.97643,4.213053 l -10.71816,0 c 0.14478,-2.238179 0.77219,-4.141055 1.86007,-5.740125 1.08788,-1.60369 2.45346,-2.902038 4.09596,-3.917902 1.65911,-1.011853 3.48041,-1.765946 5.48369,-2.248386 2.00961,-0.488928 3.97016,-0.727208 5.8959,-0.727208 4.51687,0 8.11517,0.61626 10.80678,1.825901 2.6924,1.226644 4.74077,2.708262 6.16649,4.462466 1.41542,1.737479 2.3419,3.625244 2.77547,5.66808 0.42724,2.025272 0.64481,3.823633 0.64481,5.394291 l 0,16.141651 c 0.0934,-2.652918 0.49291,-5.133991 1.32603,-7.3929 0.93834,-2.537326 2.2699,-4.713081 3.99706,-6.544593 1.72636,-1.82621 3.82379,-3.229612 6.31127,-4.214002 2.4859,-0.997604 5.28273,-1.497632 8.37547,-1.497632 4.45674,0 8.26471,1.015247 11.41124,3.053178 3.13626,2.025509 5.46787,5.395161 6.99486,10.11291 l -9.50291,0 c -0.35524,-1.226334 -1.32602,-2.375133 -2.89731,-3.463565"
         style="fill:#ffffff;fill-opacity:1;fill-rule:nonzero;stroke:#ffffff;stroke-width:0.79118371;stroke-opacity:1"
         id="path34"
         inkscape:connector-curvature="0" /></g></g></svg>